<svg width="208" height="29" viewBox="0 0 208 29" fill="none" xmlns="http://www.w3.org/2000/svg">
<path d="M9.408 23.288C7.712 23.288 6.248 22.984 5.016 22.376C3.8 21.752 2.864 20.896 2.208 19.808C1.552 18.704 1.224 17.432 1.224 15.992C1.224 14.552 1.472 13.224 1.968 12.008C2.464 10.776 3.168 9.712 4.08 8.816C5.008 7.904 6.104 7.192 7.368 6.68C8.648 6.168 10.064 5.912 11.616 5.912C13.312 5.912 14.768 6.224 15.984 6.848C17.216 7.456 18.16 8.312 18.816 9.416C19.472 10.504 19.8 11.768 19.8 13.208C19.8 14.648 19.552 15.984 19.056 17.216C18.56 18.432 17.848 19.496 16.92 20.408C16.008 21.304 14.912 22.008 13.632 22.52C12.368 23.032 10.96 23.288 9.408 23.288ZM14.112 26.864C12.56 26.864 11.208 26.496 10.056 25.76C8.92 25.024 7.968 23.928 7.2 22.472L11.472 21.608C11.808 22.488 12.208 23.104 12.672 23.456C13.136 23.808 13.696 23.984 14.352 23.984C14.864 23.984 15.36 23.88 15.84 23.672C16.336 23.464 16.784 23.176 17.184 22.808L18.648 25.136C18.104 25.712 17.432 26.144 16.632 26.432C15.848 26.72 15.008 26.864 14.112 26.864ZM9.744 19.976C10.688 19.976 11.536 19.808 12.288 19.472C13.056 19.12 13.704 18.64 14.232 18.032C14.76 17.424 15.16 16.728 15.432 15.944C15.72 15.144 15.864 14.304 15.864 13.424C15.864 12.592 15.688 11.864 15.336 11.24C14.984 10.6 14.464 10.104 13.776 9.752C13.104 9.4 12.272 9.224 11.28 9.224C10.336 9.224 9.488 9.4 8.736 9.752C7.984 10.088 7.336 10.56 6.792 11.168C6.264 11.776 5.856 12.48 5.568 13.28C5.296 14.064 5.16 14.896 5.16 15.776C5.16 16.608 5.336 17.344 5.688 17.984C6.056 18.608 6.576 19.096 7.248 19.448C7.936 19.8 8.768 19.976 9.744 19.976ZM46.506 23.192C45.45 23.192 44.538 22.968 43.77 22.52C43.002 22.056 42.458 21.384 42.138 20.504C41.818 19.624 41.786 18.536 42.042 17.24L43.458 10.088H47.202L45.834 17C45.642 17.944 45.714 18.672 46.05 19.184C46.402 19.696 47.018 19.952 47.898 19.952C48.826 19.952 49.602 19.68 50.226 19.136C50.866 18.592 51.29 17.76 51.498 16.64L52.818 10.088H56.562L53.994 23H50.442L51.162 19.352L51.69 20.456C51.082 21.4 50.322 22.096 49.41 22.544C48.498 22.976 47.53 23.192 46.506 23.192ZM77.7426 23L80.3106 10.088H84.0306L81.4626 23H77.7426ZM82.8066 8.288C82.1506 8.288 81.6226 8.104 81.2226 7.736C80.8226 7.352 80.6226 6.888 80.6226 6.344C80.6226 5.704 80.8466 5.176 81.2946 4.76C81.7586 4.328 82.3586 4.112 83.0946 4.112C83.7506 4.112 84.2786 4.296 84.6786 4.664C85.0946 5.016 85.3026 5.456 85.3026 5.984C85.3026 6.672 85.0706 7.232 84.6066 7.664C84.1586 8.08 83.5586 8.288 82.8066 8.288ZM112.034 23.192C110.706 23.192 109.546 22.952 108.554 22.472C107.578 21.992 106.818 21.32 106.274 20.456C105.73 19.592 105.458 18.576 105.458 17.408C105.458 15.968 105.794 14.688 106.466 13.568C107.138 12.432 108.066 11.536 109.25 10.88C110.434 10.224 111.794 9.896 113.33 9.896C114.706 9.896 115.898 10.184 116.906 10.76C117.914 11.32 118.658 12.12 119.138 13.16L115.97 14.744C115.698 14.136 115.314 13.696 114.818 13.424C114.338 13.136 113.762 12.992 113.09 12.992C112.354 12.992 111.698 13.176 111.122 13.544C110.546 13.896 110.09 14.392 109.754 15.032C109.418 15.656 109.25 16.384 109.25 17.216C109.25 18.096 109.506 18.8 110.018 19.328C110.546 19.84 111.29 20.096 112.25 20.096C112.906 20.096 113.506 19.96 114.05 19.688C114.594 19.4 115.05 18.96 115.418 18.368L118.178 20.096C117.57 21.072 116.722 21.832 115.634 22.376C114.562 22.92 113.362 23.192 112.034 23.192ZM143.351 20.408L144.167 15.776L151.103 10.088H155.975L148.751 16.112L146.663 17.648L143.351 20.408ZM139.607 23L143.159 5.192H146.903L143.351 23H139.607ZM149.327 23L146.015 17.576L148.631 14.72L153.671 23H149.327ZM174.139 23L174.595 20.744L183.835 11.72L184.435 12.968H176.347L176.923 10.088H188.011L187.579 12.344L178.339 21.368L177.691 20.12H186.235L185.659 23H174.139Z" fill="#767677"/>
</svg>
